<?xml version="1.0" encoding="UTF-8" standalone="no" ?>
<!DOCTYPE svg PUBLIC "-//W3C//DTD SVG 1.1//EN" "http://www.w3.org/Graphics/SVG/1.1/DTD/svg11.dtd">
<svg xmlns="http://www.w3.org/2000/svg" xmlns:xlink="http://www.w3.org/1999/xlink" version="1.1" width="400" height="400" viewBox="0 0 400 400" xml:space="preserve">
<desc>Created with Fabric.js 3.6.2</desc>
<defs>
</defs>
<g transform="matrix(8.33 0 0 8.33 200 200)" id="Layer_21"  >
<path style="stroke: none; stroke-width: 1; stroke-dasharray: none; stroke-linecap: butt; stroke-dashoffset: 0; stroke-linejoin: miter; stroke-miterlimit: 4; fill: rgb(1,101,195); fill-rule: nonzero; opacity: 1;"  transform=" translate(-12, -12)" d="M 15.5 3 h -7 A 5.5 5.5 0 0 0 3 8.5 v 7 A 5.5 5.5 0 0 0 8.5 21 h 7 A 5.5 5.5 0 0 0 21 15.5 v -7 A 5.5 5.5 0 0 0 15.5 3 Z m 4 12.5 a 4.00454 4.00454 0 0 1 -4 4 h -7 a 4.00454 4.00454 0 0 1 -4 -4 v -7 a 4.0045 4.0045 0 0 1 4 -4 h 7 a 4.0045 4.0045 0 0 1 4 4 Z" stroke-linecap="round" />
</g>
<g transform="matrix(8.33 0 0 8.33 200 200)" id="Layer_21"  >
<path style="stroke: none; stroke-width: 1; stroke-dasharray: none; stroke-linecap: butt; stroke-dashoffset: 0; stroke-linejoin: miter; stroke-miterlimit: 4; fill: rgb(1,101,195); fill-rule: nonzero; opacity: 1;"  transform=" translate(-12, -12)" d="M 12 7.5 A 4.5 4.5 0 1 0 16.5 12 A 4.5 4.5 0 0 0 12 7.5 Z M 12 15 a 3 3 0 1 1 3 -3 A 3.0034 3.0034 0 0 1 12 15 Z" stroke-linecap="round" />
</g>
<g transform="matrix(8.33 0 0 8.33 239.17 160.83)" id="Layer_21"  >
<circle style="stroke: none; stroke-width: 1; stroke-dasharray: none; stroke-linecap: butt; stroke-dashoffset: 0; stroke-linejoin: miter; stroke-miterlimit: 4; fill: rgb(1,101,195); fill-rule: nonzero; opacity: 1;"  cx="0" cy="0" r="1" />
</g>
</svg>