<?xml version="1.0" encoding="UTF-8" standalone="no" ?>
<!DOCTYPE svg PUBLIC "-//W3C//DTD SVG 1.1//EN" "http://www.w3.org/Graphics/SVG/1.1/DTD/svg11.dtd">
<svg xmlns="http://www.w3.org/2000/svg" xmlns:xlink="http://www.w3.org/1999/xlink" version="1.1" width="400" height="400" viewBox="0 0 400 400" xml:space="preserve">
<desc>Created with Fabric.js 3.6.2</desc>
<defs>
</defs>
<g transform="matrix(6.25 0 0 6.25 200 200)" id="Whatsapp"  >
<path style="stroke: none; stroke-width: 1; stroke-dasharray: none; stroke-linecap: butt; stroke-dashoffset: 0; stroke-linejoin: miter; stroke-miterlimit: 4; fill: rgb(1,101,195); fill-rule: nonzero; opacity: 1;"  transform=" translate(-16, -16)" d="M 16.004 31 c -2.868 0 -5.646 -0.811 -8.05 -2.347 l -5.348 1.709 c -0.179 0.057 -0.376 0.009 -0.509 -0.125 c -0.132 -0.134 -0.178 -0.332 -0.117 -0.51 l 1.725 -5.146 C 1.935 22.061 1 19.1 1 16 c 0 -4.076 1.612 -7.891 4.539 -10.742 C 5.736 5.066 6.053 5.07 6.246 5.267 c 0.192 0.198 0.188 0.515 -0.01 0.707 C 3.505 8.636 2 12.196 2 16 c 0 2.974 0.922 5.811 2.665 8.204 c 0.095 0.131 0.121 0.3 0.069 0.454 l -1.492 4.452 l 4.633 -1.481 c 0.144 -0.047 0.302 -0.024 0.429 0.059 C 10.589 29.2 13.252 30 16.004 30 C 23.722 30 30 23.72 30 16 c 0 -7.719 -6.278 -14 -13.996 -14 c -0.001 0 -0.002 0 -0.003 0 c -2.167 0 -4.238 0.481 -6.164 1.429 C 9.589 3.55 9.29 3.449 9.168 3.202 S 9.147 2.654 9.396 2.532 C 11.46 1.516 13.682 1 15.996 1 C 24.272 1 31 7.729 31 16 S 24.272 31 16.004 31 z" stroke-linecap="round" />
</g>
<g transform="matrix(6.25 0 0 6.25 200.01 200)" id="Whatsapp"  >
<path style="stroke: none; stroke-width: 1; stroke-dasharray: none; stroke-linecap: butt; stroke-dashoffset: 0; stroke-linejoin: miter; stroke-miterlimit: 4; fill: rgb(1,101,195); fill-rule: nonzero; opacity: 1;"  transform=" translate(-16, -16)" d="M 20.602 24.493 L 20.602 24.493 c -1.011 0 -2.422 -0.39 -4.439 -1.226 c -2.633 -1.09 -5.243 -3.374 -7.35 -6.429 l -0.075 -0.107 c -0.696 -0.951 -1.823 -2.773 -1.823 -4.675 c 0 -2.229 1.115 -3.36 1.592 -3.843 c 0.449 -0.461 1.12 -0.706 1.874 -0.706 c 0.19 0 0.36 0.009 0.515 0.018 c 0.635 0.025 1.003 0.185 1.353 1.022 l 0.363 0.88 c 0.384 0.931 0.857 2.08 0.931 2.235 c 0.082 0.169 0.331 0.688 0.054 1.228 c -0.148 0.316 -0.293 0.483 -0.492 0.713 c -0.14 0.161 -0.233 0.261 -0.328 0.361 c -0.11 0.118 -0.222 0.234 -0.334 0.375 c -0.193 0.226 -0.193 0.226 -0.128 0.339 c 0.37 0.625 1.157 1.825 2.253 2.8 c 1.422 1.265 2.571 1.73 3.123 1.954 l 0.137 0.056 c 0.145 0.06 0.328 0.103 0.465 -0.042 c 0.248 -0.267 0.562 -0.706 0.894 -1.171 l 0.199 -0.279 c 0.349 -0.493 0.779 -0.597 1.078 -0.597 c 0.175 0 0.357 0.035 0.543 0.105 c 0.465 0.162 2.912 1.381 2.937 1.393 l 0.235 0.115 c 0.35 0.168 0.626 0.301 0.784 0.579 c 0.229 0.398 0.139 1.442 -0.209 2.427 c -0.417 1.179 -1.967 2.1 -3.213 2.368 C 21.293 24.438 20.998 24.493 20.602 24.493 z M 10.38 8.507 c -0.472 0 -0.902 0.142 -1.124 0.369 c -0.461 0.468 -1.342 1.361 -1.342 3.18 c 0 1.181 0.585 2.658 1.605 4.051 l 0.116 0.165 c 1.998 2.898 4.452 5.055 6.909 6.072 c 1.893 0.785 3.182 1.15 4.057 1.15 l 0 0 c 0.3 0 0.523 -0.042 0.727 -0.085 c 0.973 -0.21 2.198 -0.929 2.479 -1.724 c 0.304 -0.857 0.298 -1.516 0.262 -1.647 c -0.002 0.031 -0.182 -0.054 -0.327 -0.124 l -0.249 -0.122 c -0.701 -0.351 -2.513 -1.236 -2.83 -1.347 c -0.084 -0.032 -0.148 -0.045 -0.202 -0.045 c -0.045 0 -0.138 0 -0.264 0.178 l -0.2 0.28 c -0.351 0.492 -0.682 0.956 -0.976 1.272 c -0.377 0.403 -1.024 0.515 -1.581 0.283 l -0.127 -0.052 c -0.557 -0.225 -1.862 -0.753 -3.413 -2.133 c -1.196 -1.066 -2.049 -2.363 -2.451 -3.042 c -0.423 -0.729 0.006 -1.231 0.212 -1.472 c 0.131 -0.163 0.259 -0.298 0.387 -0.434 c 0.084 -0.089 0.168 -0.178 0.254 -0.278 c 0.225 -0.259 0.299 -0.345 0.396 -0.552 c 0.029 -0.057 0.045 -0.138 -0.059 -0.354 c -0.076 -0.16 -0.562 -1.334 -0.953 -2.286 l -0.362 -0.877 c -0.165 -0.396 -0.165 -0.396 -0.479 -0.408 C 10.701 8.515 10.549 8.507 10.38 8.507 z" stroke-linecap="round" />
</g>
<g transform="matrix(6.25 0 0 6.25 146.88 125)" id="Whatsapp"  >
<circle style="stroke: none; stroke-width: 1; stroke-dasharray: none; stroke-linecap: butt; stroke-dashoffset: 0; stroke-linejoin: miter; stroke-miterlimit: 4; fill: rgb(38,50,56); fill-rule: nonzero; opacity: 1;"  cx="0" cy="0" r="0.5" />
</g>
</svg>